<svg xmlns="http://www.w3.org/2000/svg" id="arrow-repeat" width="18.955" height="14.497" viewBox="0 0 18.955 14.497">
    <defs>
        <style>
            .cls-1{fill-rule:evenodd}
        </style>
    </defs>
    <path id="Path_342" d="M.732.475a.557.557 0 0 0-.557.557A7.247 7.247 0 0 0 13.7 4.656a.557.557 0 0 0-.966-.557A6.132 6.132 0 0 1 1.29 1.032.557.557 0 0 0 .732.475z" class="cls-1" transform="translate(2.056 6.216)"/>
    <path id="Path_343" d="M3.258 6.471a.557.557 0 0 0-.789 0L.238 8.7a.558.558 0 0 0 .789.789l1.836-1.835L4.7 9.49a.558.558 0 0 0 .787-.79zm12.925 1.51a.557.557 0 0 0 .557-.557A7.247 7.247 0 0 0 3.216 3.8a.557.557 0 1 0 .966.557 6.132 6.132 0 0 1 11.444 3.066.557.557 0 0 0 .557.557z" class="cls-1" transform="translate(-.075 -.175)"/>
    <path id="Path_344" d="M6.087.564a.557.557 0 0 0-.789 0L3.463 2.4 1.628.564a.558.558 0 0 0-.789.789l2.23 2.23a.557.557 0 0 0 .789 0l2.23-2.23a.557.557 0 0 0 0-.789z" class="cls-1" transform="translate(12.704 4.618)"/>
</svg>
