<svg xmlns="http://www.w3.org/2000/svg" id="award" width="23.518" height="32.973" viewBox="0 0 23.518 32.973">
    <defs>
        <style>
            .cls-1{fill:#ddd}
        </style>
    </defs>
    <path id="Path_377" d="M11.974.1l3.44 1.781 3.829.581 1.735 3.462 2.755 2.72-.633 3.821.631 3.821-2.755 2.72-1.735 3.462-3.829.581-3.44 1.781-3.44-1.781-3.829-.581-1.733-3.462-2.755-2.72.631-3.821-.631-3.821 2.755-2.72 1.735-3.462 3.829-.581z" class="cls-1" transform="translate(-.215 -.1)"/>
    <path id="Path_378" d="M.3.69v8.668L8.543 7.3l8.243 2.061V.69l-4.159.631-4.084 2.114L4.459 1.32z" class="cls-1" transform="translate(3.216 23.615)"/>
</svg>
