<svg xmlns="http://www.w3.org/2000/svg" id="award" width="12.933" height="18.133" viewBox="0 0 12.933 18.133">
    <defs>
        <style>
            .cls-1{fill:#888}
        </style>
    </defs>
    <path id="Path_377" d="M6.681.1l1.891.979 2.106.32.954 1.9 1.515 1.5L12.8 6.9l.348 2.1-1.515 1.5-.954 1.9-2.106.32-1.892.98-1.891-.98-2.106-.32-.954-1.9L.215 9l.346-2.1-.346-2.1L1.73 3.3l.954-1.9 2.106-.32z" class="cls-1" transform="translate(-.215 -.1)"/>
    <path id="Path_378" d="M.3.69v4.766l4.533-1.133 4.533 1.133V.69l-2.287.347L4.833 2.2 2.587 1.036z" class="cls-1" transform="translate(1.633 12.676)"/>
</svg>
