<svg xmlns="http://www.w3.org/2000/svg" width="36.326" height="38.01" viewBox="0 0 36.326 38.01">
    <path fill="#ddd" fill-rule="evenodd" d="M12.587 30.015s1.476 1.765.266 5.289a13.869 13.869 0 0 1-1.4 2.856 9.6 9.6 0 0 0 2.967-.491c5.415-1.765 9.52-7.654 9.52-7.654a11.551 11.551 0 0 0 8.83-4.374 16.534 16.534 0 0 0 3.657-10.559 16.534 16.534 0 0 0-3.659-10.558A11.551 11.551 0 0 0 23.939.15H12.587a11.551 11.551 0 0 0-8.83 4.374A16.534 16.534 0 0 0 .1 15.082a16.534 16.534 0 0 0 3.657 10.559 11.551 11.551 0 0 0 8.83 4.374z" transform="translate(-.1 -.15)"/>
</svg>
