<svg xmlns="http://www.w3.org/2000/svg" id="document-richtext" width="22.965" height="26.85" viewBox="0 0 22.965 26.85">
    <defs>
        <style>
            .cls-1{fill:#ddd;fill-rule:evenodd}
        </style>
    </defs>
    <path id="Path_510" d="M4.028.15h15.31a3.832 3.832 0 0 1 3.828 3.836v19.178A3.832 3.832 0 0 1 19.338 27H4.028A3.832 3.832 0 0 1 .2 23.164V3.986A3.832 3.832 0 0 1 4.028.15zm0 1.918a1.916 1.916 0 0 0-1.914 1.918v19.178a1.916 1.916 0 0 0 1.914 1.918h15.31a1.916 1.916 0 0 0 1.914-1.918V3.986a1.916 1.916 0 0 0-1.914-1.918z" class="cls-1" transform="translate(-.2 -.15)"/>
    <path id="Path_511" d="M.325 16.577a.958.958 0 0 1 .957-.959h5.741a.959.959 0 0 1 0 1.918H1.282a.958.958 0 0 1-.957-.959zm0-3.836a.958.958 0 0 1 .957-.959h11.482a.959.959 0 0 1 0 1.918H1.282a.958.958 0 0 1-.957-.959zM3.462 5.15l2.545 1.7 3.548-3.558a.478.478 0 0 1 .553-.09l3.613 1.868v3.356a.958.958 0 0 1-.957.959H1.282a.958.958 0 0 1-.957-.959v-.959S3.272 5.024 3.462 5.15zm.212-2a1.437 1.437 0 1 0-1.015-.42 1.432 1.432 0 0 0 1.015.421z" class="cls-1" transform="translate(4.459 4.52)"/>
</svg>
