<svg xmlns="http://www.w3.org/2000/svg" id="inboxes-fill" width="36.338" height="36.271" viewBox="0 0 36.338 36.271">
    <defs>
        <style>
            .cls-1{fill:#ddd;fill-rule:evenodd}
        </style>
    </defs>
    <path id="Path_586" d="M.416 25.422a1.134 1.134 0 0 1 .85-.385h12.468a1.133 1.133 0 0 1 1.133 1.133 3.4 3.4 0 1 0 6.8 0 1.133 1.133 0 0 1 1.133-1.134h12.47a1.133 1.133 0 0 1 1.124 1.274l-.884 7.082a3.4 3.4 0 0 1-3.375 2.979H4.4a3.4 3.4 0 0 1-3.375-2.979L.142 26.31a1.133 1.133 0 0 1 .274-.891zM8.77 1.376A3.4 3.4 0 0 1 11.422.1h13.692a3.4 3.4 0 0 1 2.652 1.276l8.388 10.485a1.133 1.133 0 1 1-1.768 1.415L26 2.793a1.133 1.133 0 0 0-.884-.426H11.422a1.134 1.134 0 0 0-.884.426L2.15 13.275a1.133 1.133 0 1 1-1.768-1.414L8.77 1.376z" class="cls-1" transform="translate(-.099 -.1)"/>
    <path id="Path_587" d="M.383.735a1.134 1.134 0 0 1 .85-.385H13.7a1.133 1.133 0 0 1 1.133 1.133 3.4 3.4 0 1 0 6.8 0A1.133 1.133 0 0 1 22.769.35h12.468a1.134 1.134 0 0 1 1.124 1.274l-.884 7.082a3.4 3.4 0 0 1-3.377 2.979H4.368A3.4 3.4 0 0 1 .993 8.706L.109 1.624A1.134 1.134 0 0 1 .383.733z" class="cls-1" transform="translate(-.066 10.985)"/>
</svg>
