<svg xmlns="http://www.w3.org/2000/svg" id="pencil" width="24.134" height="24.135" viewBox="0 0 24.134 24.135">
    <defs>
        <style>
            .cls-1{fill-rule:evenodd}
        </style>
    </defs>
    <path id="Path_626" d="M17.894.655a1.724 1.724 0 0 1 2.438 0L23.78 4.1a1.724 1.724 0 0 1 0 2.438L8.265 22.054a1.724 1.724 0 0 1-.672.417L2.421 24.2a1.724 1.724 0 0 1-2.182-2.185l1.724-5.172a1.724 1.724 0 0 1 .417-.674L17.894.655zm1.219 1.219l3.448 3.448L7.046 20.836 1.875 22.56 3.6 17.388z" class="cls-1" transform="translate(-.15 -.15)"/>
    <path id="Path_627" d="M16.016 5.787l-4.31-4.31 1.22-1.22 4.31 4.31zM.25 12.073v.862a.862.862 0 0 0 .862.862h.862v.862a.862.862 0 0 0 .862.862H3.7v.862a.862.862 0 0 0 .862.862h.862v-2.587a.862.862 0 0 0-.864-.858H3.7v-.862a.862.862 0 0 0-.862-.862z" class="cls-1" transform="translate(3.198 3.442)"/>
</svg>
