<svg xmlns="http://www.w3.org/2000/svg" width="144.362" height="152.376" viewBox="0 0 144.362 152.376">
    <path fill="#ddd" fill-rule="evenodd" d="M12.23 152.576s-12.03 0-12.03-12.7 12.03-50.79 72.181-50.79 72.181 38.094 72.181 50.792-12.03 12.7-12.03 12.7zm60.151-76.188a34.451 34.451 0 0 0 13.811-2.9A36.025 36.025 0 0 0 97.9 65.231a38.3 38.3 0 0 0 7.823-12.359 40.052 40.052 0 0 0 0-29.156A38.3 38.3 0 0 0 97.9 11.357 36.026 36.026 0 0 0 86.192 3.1 34.451 34.451 0 0 0 72.381.2a35.155 35.155 0 0 0-25.52 11.158 39.606 39.606 0 0 0 0 53.873 35.156 35.156 0 0 0 25.52 11.158z" transform="translate(-.2 -.2)"/>
</svg>
