<svg xmlns="http://www.w3.org/2000/svg" width="55.131" height="58.191" viewBox="0 0 55.131 58.191">
    <path fill="#ddd" fill-rule="evenodd" d="M4.794 58.391A4.583 4.583 0 0 1 .2 53.542c0-4.849 4.594-19.4 27.565-19.4S55.33 48.69 55.33 53.542a4.583 4.583 0 0 1-4.594 4.849zM27.765 29.3a13.157 13.157 0 0 0 5.274-1.107 13.758 13.758 0 0 0 4.471-3.154 14.626 14.626 0 0 0 2.988-4.72 15.3 15.3 0 0 0 0-11.134 14.627 14.627 0 0 0-2.988-4.72 13.758 13.758 0 0 0-4.47-3.158A13.157 13.157 0 0 0 27.765.2a13.425 13.425 0 0 0-9.746 4.261 15.125 15.125 0 0 0 0 20.574 13.426 13.426 0 0 0 9.746 4.265z" transform="translate(-.2 -.199)"/>
</svg>
