<svg xmlns="http://www.w3.org/2000/svg" width="9.749" height="10.29" viewBox="0 0 9.749 10.29">
    <path fill="#aaaaaa" fill-rule="evenodd" d="M1.012 10.49A.81.81 0 0 1 .2 9.633c0-.858.812-3.43 4.875-3.43S9.95 8.776 9.95 9.633a.81.81 0 0 1-.812.858zm4.063-5.145a2.327 2.327 0 0 0 .933-.2 2.433 2.433 0 0 0 .792-.553 2.586 2.586 0 0 0 .528-.835 2.7 2.7 0 0 0 0-1.969A2.587 2.587 0 0 0 6.8.953 2.433 2.433 0 0 0 6.007.4a2.327 2.327 0 0 0-.932-.2 2.374 2.374 0 0 0-1.724.753 2.675 2.675 0 0 0 0 3.638 2.374 2.374 0 0 0 1.723.753z" transform="translate(-.2 -.2)"/>
</svg>
