<svg xmlns="http://www.w3.org/2000/svg" width="105.692" height="111.56" viewBox="0 0 105.692 111.56">
    <path fill="#ddd" fill-rule="evenodd" d="M9.008 111.76s-8.808 0-8.808-9.3 8.808-37.183 52.846-37.183 52.846 27.89 52.846 37.187-8.808 9.3-8.808 9.3zm44.038-55.78a25.223 25.223 0 0 0 10.112-2.123 26.376 26.376 0 0 0 8.572-6.046 28.04 28.04 0 0 0 5.728-9.048 29.323 29.323 0 0 0 0-21.346 28.042 28.042 0 0 0-5.728-9.048 26.376 26.376 0 0 0-8.572-6.046A25.223 25.223 0 0 0 53.046.2a25.738 25.738 0 0 0-18.684 8.169 29 29 0 0 0 0 39.442 25.739 25.739 0 0 0 18.684 8.169z" transform="translate(-.2 -.2)"/>
</svg>
