<svg xmlns="http://www.w3.org/2000/svg" width="36.691" height="38.728" viewBox="0 0 36.691 38.728">
    <path fill="#fff" fill-rule="evenodd" d="M3.258 38.928A3.05 3.05 0 0 1 .2 35.7c0-3.227 3.058-12.909 18.346-12.909S36.891 32.474 36.891 35.7a3.05 3.05 0 0 1-3.058 3.227zm15.288-19.364a8.756 8.756 0 0 0 3.51-.737 9.156 9.156 0 0 0 2.976-2.1 9.734 9.734 0 0 0 1.988-3.141 10.18 10.18 0 0 0 0-7.41 9.735 9.735 0 0 0-1.988-3.141 9.156 9.156 0 0 0-2.976-2.1A8.756 8.756 0 0 0 18.546.2a8.935 8.935 0 0 0-6.486 2.836 10.066 10.066 0 0 0 0 13.693 8.935 8.935 0 0 0 6.486 2.836z" transform="translate(-.2 -.2)"/>
</svg>
