<svg xmlns="http://www.w3.org/2000/svg" width="34.69" height="34.69" viewBox="0 0 34.69 34.69">
    <path fill-rule="evenodd" d="M34.79 17.445A17.345 17.345 0 1 1 29.71 5.18a17.345 17.345 0 0 1 5.08 12.265zM14.345 13.18h-2.862c-.065-4.089 3.1-5.492 5.975-5.492 3.029 0 5.8 1.583 5.8 4.857 0 2.342-1.377 3.456-2.7 4.46-1.6 1.212-2.19 1.665-2.19 3.222V21h-2.837l-.015-1c-.082-2.01 1.073-3.248 2.532-4.308 1.279-.963 2.092-1.6 2.092-2.972 0-1.789-1.362-2.532-2.849-2.532a2.766 2.766 0 0 0-2.944 3zm2.712 13.97a2.03 2.03 0 1 1 0-4.048 2.033 2.033 0 1 1 0 4.048z" transform="translate(-.1 -.1)"/>
</svg>
