<svg xmlns="http://www.w3.org/2000/svg" width="19.694" height="22.724" viewBox="0 0 19.694 22.724">
    <path fill="#ddd" fill-rule="evenodd" d="M1.69 1.615A1.515 1.515 0 0 0 .175 3.13v1.515A1.515 1.515 0 0 0 1.69 6.16h.757v13.634a3.03 3.03 0 0 0 3.03 3.03h9.09a3.03 3.03 0 0 0 3.03-3.03V6.16h.757a1.515 1.515 0 0 0 1.515-1.515V3.13a1.515 1.515 0 0 0-1.515-1.515h-5.3A1.515 1.515 0 0 0 11.537.1h-3.03a1.515 1.515 0 0 0-1.515 1.515zm4.545 6.06a.757.757 0 0 1 .757.757v10.6a.757.757 0 1 1-1.515 0v-10.6a.757.757 0 0 1 .757-.757zm3.787 0a.757.757 0 0 1 .757.757v10.6a.757.757 0 1 1-1.515 0v-10.6a.757.757 0 0 1 .757-.757zm4.545.757a.757.757 0 1 0-1.515 0v10.6a.757.757 0 1 0 1.515 0z" transform="translate(-.175 -.1)"/>
</svg>
